# xmcd
#
# Track frame offsets:
#  150
#  8563
#  29383
#  44012
#  67388
#  81176
#  97257
#  108824
#  124242
#  135795
#  159652
#  180077
#  194877
#  209113
#  228377
#
# Disc length: 3297 seconds
#
# Revision: 0
# Processed by: cddbd v1.5.2PL0 Copyright (c) Steve Scherf et al.
# Submitted via: Collectorz.com Music Collector 6.9
#
DISCID=d50cdf0f
DTITLE=Country Trail Band - Breng Het Licht [CD1]
DYEAR=2007
DGENRE=General Religious - Nederlandstalig
TTITLE0=Wim Pols - Jezus Zegt Dat Hij Hier Van Ons Verwacht
TTITLE1=Eline Bos - O Mens, Is 't U Droevig Te Moede
TTITLE2=Wim Pols - Hans Steeds - Breng Het Licht
TTITLE3=Ais Lawa-Lata - Bersama Sama (Doorgrond Mijn Hart)
TTITLE4=Astrid Langeland - Zouden Wij Ook Eenmaal Komen
TTITLE5=Peter Kits - Blijf Bij Mij Heer
TTITLE6=Hans Steeds - Zie Ons Wachten Aan De Stromen
TTITLE7=Janneke Slagter - Leer Mij Uw Weg, O Heer
TTITLE8=Wim Pols - Als 't Bazuingeschal Des Heren Klinkt
TTITLE9=Iris De La Bey - In De Stilte Van De Avond
TTITLE10=Harry Govers - Marijke Govers - Liefde Vond Mij
TTITLE11=Wim Pols - Astrid Langeland - Rots Der Eeuwen
TTITLE12=Daan Kroeze - De Stad Met Paarlen Poorten
TTITLE13=Astrid Langeland - Zoals 'k Ben, 'k Pleit Anders Niet
TTITLE14=Hans De Heer - Klem Vast Aan De Rots U
EXTD=
EXTT0=
EXTT1=
EXTT2=
EXTT3=
EXTT4=
EXTT5=
EXTT6=
EXTT7=
EXTT8=
EXTT9=
EXTT10=
EXTT11=
EXTT12=
EXTT13=
EXTT14=
PLAYORDER=
